<?xml version="1.0" encoding="UTF-8" standalone="no"?>
<!DOCTYPE svg PUBLIC "-//W3C//DTD SVG 1.1//EN" "http://www.w3.org/Graphics/SVG/1.1/DTD/svg11.dtd">
<svg width="100%" height="100%" viewBox="0 0 513 513" version="1.1" xmlns="http://www.w3.org/2000/svg" xmlns:xlink="http://www.w3.org/1999/xlink" xml:space="preserve" xmlns:serif="http://www.serif.com/" style="fill-rule:evenodd;clip-rule:evenodd;stroke-miterlimit:1.5;">
    <g transform="matrix(1,0,0,1,-1474,-1273)">
        <g id="dirtywave-updater-Icon-3" serif:id="Dirtywave Updater Icon 3" transform="matrix(1,0,0,1,1474.54,1273.5)">
            <rect x="0" y="0" width="512" height="512" style="fill:none;"/>
            <g transform="matrix(1,0,0,1,-5.13711,-7.97255)">
                <g>
                    <g transform="matrix(6.25712,4.09177,-4.09177,6.25712,1300.9,-2542.44)">
                        <path d="M94.841,392.685L92.024,392.685L77.017,377.658L77.017,373.66L103.986,373.66L108.003,377.65L108.003,391.222C106.104,389.096 103.251,388.159 100.529,388.638L96.042,384.612L96.042,391.05C95.569,391.548 95.167,392.099 94.841,392.685Z" style="fill:rgb(0,229,255);"/>
                    </g>
                    <g>
                        <g>
                            <clipPath id="_clip1">
                                <path d="M288.562,70.086L515.931,144.788L464.785,425.023L375.92,361.504L439.701,264.04L429.52,216.421L257.598,103.839L288.562,70.086Z"/>
                            </clipPath>
                            <g clip-path="url(#_clip1)">
                                <g transform="matrix(0.391407,0.259758,-0.259758,0.391407,461.263,136.501)">
                                    <g transform="matrix(131.226,0,0,131.226,263.061,500.679)">
                                    </g>
                                    <text x="176.944px" y="500.679px" style="font-family:'stealth57';font-size:131.226px;fill:rgb(0,229,255);">0</text>
                                </g>
                                <g transform="matrix(0.418502,-0.213378,0.213378,0.418502,195.45,4.35495)">
                                    <g transform="matrix(131.226,0,0,131.226,263.061,500.679)">
                                    </g>
                                    <text x="176.944px" y="500.679px" style="font-family:'stealth57';font-size:131.226px;fill:rgb(0,229,255);">1</text>
                                </g>
                                <g transform="matrix(0.460186,-0.0943543,0.0943543,0.460186,309.199,7.93492)">
                                    <g transform="matrix(131.226,0,0,131.226,263.061,500.679)">
                                    </g>
                                    <text x="176.944px" y="500.679px" style="font-family:'stealth57';font-size:131.226px;fill:rgb(0,229,255);">0</text>
                                </g>
                                <g transform="matrix(0.419104,-0.212192,0.212192,0.419104,250.758,125.789)">
                                    <g transform="matrix(131.226,0,0,131.226,263.061,500.679)">
                                    </g>
                                    <text x="176.944px" y="500.679px" style="font-family:'stealth57';font-size:131.226px;fill:rgb(0,229,255);">0</text>
                                </g>
                                <g transform="matrix(0.172684,0.436869,-0.436869,0.172684,550.884,22.0545)">
                                    <g transform="matrix(131.226,0,0,131.226,263.061,500.679)">
                                    </g>
                                    <text x="176.944px" y="500.679px" style="font-family:'stealth57';font-size:131.226px;fill:rgb(0,229,255);">0</text>
                                </g>
                                <g transform="matrix(0.442016,-0.159047,0.159047,0.442016,255.289,138.807)">
                                    <g transform="matrix(131.226,0,0,131.226,263.061,500.679)">
                                    </g>
                                    <text x="176.944px" y="500.679px" style="font-family:'stealth57';font-size:131.226px;fill:rgb(0,229,255);">1</text>
                                </g>
                                <g transform="matrix(0.469759,0,0,0.469759,196.988,-70.528)">
                                    <g transform="matrix(131.226,0,0,131.226,263.061,500.679)">
                                    </g>
                                    <text x="176.944px" y="500.679px" style="font-family:'stealth57';font-size:131.226px;fill:rgb(0,229,255);">0</text>
                                </g>
                                <g transform="matrix(0.411649,0.226316,-0.226316,0.411649,351.824,-67.1259)">
                                    <g transform="matrix(131.226,0,0,131.226,263.061,500.679)">
                                    </g>
                                    <text x="176.944px" y="500.679px" style="font-family:'stealth57';font-size:131.226px;fill:rgb(0,229,255);">1</text>
                                </g>
                            </g>
                        </g>
                    </g>
                </g>
                <g id="D" transform="matrix(7.47624,0,0,7.47624,-357.109,-2604.38)">
                    <path d="M62.89,392.685L58.03,392.685L54.008,388.629L54.008,373.66L70.011,373.66L82.047,385.663L82.047,392.685L77.704,392.685C76.424,389.872 73.587,387.914 70.297,387.914C67.007,387.914 64.171,389.872 62.89,392.685ZM55.831,375.475L55.831,380.714L57.239,382.134L65.645,382.134L65.645,379.676L61.432,375.475L55.831,375.475Z" style="fill:rgb(0,229,255);"/>
                </g>
                <g transform="matrix(1.12472,0,0,1.12472,-43.6254,-85.8332)">
                    <path d="M188.558,353.589C210.496,353.589 228.307,371.4 228.307,393.339C228.307,415.277 210.496,433.088 188.558,433.088C166.619,433.088 148.808,415.277 148.808,393.339C148.808,371.4 166.619,353.589 188.558,353.589ZM188.558,376.72C179.386,376.72 171.939,384.167 171.939,393.339C171.939,402.511 179.386,409.957 188.558,409.957C197.73,409.957 205.176,402.511 205.176,393.339C205.176,384.167 197.73,376.72 188.558,376.72Z" style="fill:rgb(0,229,255);"/>
                </g>
                <g transform="matrix(1.12472,0,0,1.12472,103.708,-85.8332)">
                    <path d="M188.558,353.589C210.496,353.589 228.307,371.4 228.307,393.339C228.307,415.277 210.496,433.088 188.558,433.088C166.619,433.088 148.808,415.277 148.808,393.339C148.808,371.4 166.619,353.589 188.558,353.589ZM188.558,376.72C179.386,376.72 171.939,384.167 171.939,393.339C171.939,402.511 179.386,409.957 188.558,409.957C197.73,409.957 205.176,402.511 205.176,393.339C205.176,384.167 197.73,376.72 188.558,376.72Z" style="fill:rgb(0,229,255);"/>
                </g>
            </g>
            <g>
                <g id="Bracket" transform="matrix(0.883467,0,0,0.94121,-28.7113,6.93062)">
                    <path d="M60.831,72.369L60.831,19.246L117.427,19.246" style="fill:none;stroke:rgb(0,229,255);stroke-width:17.53px;"/>
                </g>
                <g id="Bracket1" serif:id="Bracket" transform="matrix(-0.883467,-1.08194e-16,1.15265e-16,-0.94121,540.683,505.026)">
                    <path d="M60.831,72.369L60.831,19.246L117.427,19.246" style="fill:none;stroke:rgb(0,229,255);stroke-width:17.53px;"/>
                </g>
                <g id="Bracket2" serif:id="Bracket" transform="matrix(1.05516e-15,-0.883467,0.94121,1.12412e-15,6.9167,540.654)">
                    <path d="M60.831,72.369L60.831,19.246L117.427,19.246" style="fill:none;stroke:rgb(0,229,255);stroke-width:17.53px;"/>
                </g>
                <g id="Bracket3" serif:id="Bracket" transform="matrix(5.40968e-17,0.883467,-0.94121,5.76325e-17,505.055,-28.6974)">
                    <path d="M60.831,72.369L60.831,19.246L117.427,19.246" style="fill:none;stroke:rgb(0,229,255);stroke-width:17.53px;"/>
                </g>
            </g>
        </g>
    </g>
</svg>
