<?xml version="1.0" encoding="UTF-8" standalone="no"?>
<!DOCTYPE svg PUBLIC "-//W3C//DTD SVG 1.1//EN" "http://www.w3.org/Graphics/SVG/1.1/DTD/svg11.dtd">
<svg width="100%" height="100%" viewBox="0 0 638 638" version="1.1" xmlns="http://www.w3.org/2000/svg" xmlns:xlink="http://www.w3.org/1999/xlink" xml:space="preserve" xmlns:serif="http://www.serif.com/" style="fill-rule:evenodd;clip-rule:evenodd;stroke-linejoin:round;stroke-miterlimit:2;">
    <g id="icon" transform="matrix(0.2919,0,0,0.422225,782.746,147.872)">
        <rect x="-2681.56" y="-350.221" width="2183.63" height="1509.62" style="fill:none;"/>
        <clipPath id="_clip1">
            <rect x="-2681.56" y="-350.221" width="2183.63" height="1509.62"/>
        </clipPath>
        <g clip-path="url(#_clip1)">
            <g transform="matrix(3.42584,0,0,2.36841,-3956.79,-1498.78)">
                <rect x="372.239" y="484.95" width="637.417" height="637.417"/>
            </g>
            <g transform="matrix(3.84071,0,0,2.67467,-8838.41,-1686.93)">
                <g transform="matrix(0.554921,0,0,0.550888,1493.84,361.207)">
                    <path d="M720.335,794.702L720.335,902.755C720.335,905.854 717.856,908.437 714.653,908.437L377.556,908.437C376.007,908.437 374.664,907.817 373.528,906.784L313.303,846.559C312.27,845.526 311.65,844.08 311.65,842.53L311.65,623.634C311.65,620.535 314.129,617.952 317.332,617.952L543.689,617.952C545.239,617.952 546.582,618.572 547.718,619.605L718.682,790.673C719.715,791.706 720.335,793.152 720.335,794.702Z" style="fill:rgb(230,230,230);fill-rule:nonzero;"/>
                </g>
                <g transform="matrix(0.554921,0,0,0.550888,1493.84,361.207)">
                    <path d="M1105.65,683.859L1105.65,902.755C1105.65,905.854 1103.17,908.437 1099.97,908.437L1058.96,908.437C1057.41,908.437 1056.07,907.817 1054.93,906.784L942.227,793.978C941.194,792.945 939.748,792.326 938.198,792.326L924.769,792.326C924.459,792.326 924.149,792.636 924.149,792.945L924.149,902.755C924.149,905.854 921.67,908.437 918.467,908.437L873.531,908.437C871.982,908.437 870.639,907.817 869.502,906.784L646.164,683.239C645.131,682.206 644.512,680.76 644.512,679.21L644.512,623.634C644.512,620.535 646.991,617.952 650.193,617.952L1039.74,617.952C1041.29,617.952 1042.64,618.572 1043.77,619.605L1104,679.933C1105.03,680.966 1105.65,682.413 1105.65,683.859Z" style="fill:rgb(230,230,230);fill-rule:nonzero;"/>
                </g>
            </g>
        </g>
    </g>
</svg>
